<svg width="1440" height="196" viewBox="0 0 1440 196" fill="none" xmlns="http://www.w3.org/2000/svg">
<mask id="mask0" mask-type="alpha" maskUnits="userSpaceOnUse" x="-34" y="-39" width="1481" height="235">
<rect x="-34" y="-39" width="1481" height="235" fill="#C4C4C4"/>
</mask>
<g mask="url(#mask0)">
<rect x="2" y="1" width="1440" height="194" fill="#818CEE"/>
<path d="M1123 263.5C1289 217.1 1245.5 31.8333 1203 -55H-10V236C-10 236 915.5 321.5 1123 263.5Z" fill="#CCBFFF"/>
<path d="M42.5 79C-16.047 72.2292 -5.5 164.5 -5.5 196L-35 -7.70881C250.187 -7.70881 707.695 -17.5326 760 -5.50006C866.5 18.9999 857 111 820.561 133.639C784.121 156.278 615 195.5 567 201C519 206.5 420.352 202 340.5 202C116 202 116 87.5 42.5 79Z" fill="#C8CDFF"/>
<path d="M50 64C15.082 60.3627 3.16667 65.6667 -2 66.5V-4.99999H308.5C308.5 -4.99999 513.818 -16.5464 478.5 36C458 66.5 381.846 101.5 338.5 113C295.154 124.5 227 121.5 174.5 113C133.04 106.287 74 66.5 50 64Z" fill="#D5DDFF"/>
</g>
</svg>
